<?xml version="1.0" encoding="UTF-8"?>
<svg id="Layer_2" data-name="Layer 2" xmlns="http://www.w3.org/2000/svg" viewBox="0 0 2045.23 443.51">
  <defs>
    <style>
      .cls-1 {
        fill: #d2ca52;
      }

      .cls-2 {
        fill: #64bf7b;
      }

      .cls-3 {
        fill: #fb743c;
      }

      .cls-4 {
        fill: #0c355b;
      }

      .cls-5 {
        fill: #0c3059;
      }

      .cls-6 {
        fill: #f8c936;
      }

      .cls-7 {
        fill: #f9c427;
      }

      .cls-8 {
        fill: #7ecfe8;
      }

      .cls-9 {
        fill: #fefefe;
      }

      .cls-10 {
        fill: #fdfdfd;
      }
    </style>
  </defs>
  <g id="Layer_1-2" data-name="Layer 1">
    <g>
      <path class="cls-5" d="M546.77,71.99l4.52-2.03c60.76,6.66,193.47-22.64,227.29,44.22,16.68,32.97,3.82,75.47-29.5,91.95-5.06,2.5-10.88,3.23-15.61,5.36-1.55.7-2.37-.62-1.85,2.74,54.86,5.38,80.1,70.22,53.49,115.77-16.98,29.07-52.47,40.05-84.25,42.92l-154.1-.05V71.99ZM614.95,193.26h71.45c1.52,0,11.17-4.08,13.14-5.21,21.77-12.49,20.25-49.46-3.72-59.27-2.63-1.08-11.11-3.69-13.35-3.69h-67.52v68.17ZM614.95,317.8h71.45c7.09,0,23.78-7.65,28.87-13.09,12.28-13.11,11.4-38.23-2.87-49.62-7.75-6.18-24.16-10.71-33.86-10.71h-61.62l-1.97,1.97v71.45Z"/>
      <path class="cls-5" d="M1157.69,71.99l4.52-2.03c79.39,4.29,175.64-18.97,234.11,49.19,46.94,54.73,47.39,147.74.64,202.6-60.74,71.26-152.01,46.82-234.75,51.18l-4.52-2.03V71.99ZM1227.18,315.18h66.2c6.15,0,20.71-5.76,26.44-8.96,53.25-29.73,55.19-124.37,8.93-161.44-8.67-6.95-29.66-17.07-40.61-17.07h-60.96v187.47Z"/>
      <path class="cls-5" d="M1767.3,306.66c-87.96,124.7-307.71,71.43-301.59-91.83,5.21-139.1,181.33-192.63,278.68-105.51,1.76,1.58,11,10.16,9.8,11.81l-58.35,33.88c-44.76-45.09-120.31-31.64-150.32,22.95-46.29,84.19,56.27,175.45,136.45,122.03,3.45-2.3,22.41-18.49,22.41-20.86v-20.32h-60.31v-56.37l123.23-1.31v105.53Z"/>
      <path class="cls-5" d="M909.92,70.02v188.13c0,14.72,14.05,38.96,26.31,47.11,41.43,27.53,96.93-.72,96.93-51.04V70.02h68.17l.05,188.18c-5.61,159.57-257.93,156.68-260.93-2.69V70.02s69.47,0,69.47,0Z"/>
      <polygon class="cls-5" points="2039.99 71.33 2039.99 127.71 1886.6 127.71 1886.6 315.83 1888.57 317.8 2043.27 317.8 2045.23 319.77 2045.23 372.21 2043.27 374.17 1820.4 374.17 1818.43 372.21 1818.43 71.33 2039.99 71.33"/>
      <polygon class="cls-5" points="2025.57 194.57 2025.57 250.94 1928.55 250.94 1935.11 194.57 2025.57 194.57"/>
    </g>
    <g>
      <ellipse class="cls-10" cx="225.19" cy="221.76" rx="223.8" ry="221.76"/>
      <g>
        <path class="cls-6" d="M354.23,104.81c-11.49-29.52-25.68-54.05-47.89-76.93-15.43-15.89-23.49-20.47-45.56-23.86-40.67-6.25-84.42,0-122.74,14.17C57.27,45.55,1.46,133.26.15,216.96l1.64,6.02c10.59,15.16,23.33,28.94,37.42,40.91,8.48,7.2,35.01,27.52,44.53,27.89,1.12.04,2.25-.09,3.38-.28,15.75,7.05,29.05,8.96,44.72,13.67l-.61-3.7c-26.24-15-48.54-39.14-57.04-68.52,12.28,9.41,26.66,17.4,42.34,20.26,5.74,1.05,17.82,2.69,12.47-6.41-36.47-21.7-61.75-62.02-54.45-105.05,28.82,43.22,76.49,59.83,126,61.09,60.96,4.83,72.13,79.8,19.88,106.39l-1.64,3.4c1.96.4,4.64-1.72,2.66,2.04-3.6,6.87-9.31,10.66-13.85,16.59,42.52-8.31,69.9-43.07,64.28-87.26-3.04-23.95-26.25-50.77-50.56-54.41-.4-20.17,6.99-39.13,18.4-55.44-7.65-10.62-20.13-17.37-19.7-32.7,2.47-.33,4.05,1.8,6.2,2.48,12.55,5.43,27.94,8.97,41,4.97l1.76.73c34.99-8.42,66.39-.53,88.24,29.34,1.28.59,2.37.3,3.53-.44,3.71-2.36-4.89-29.43-6.55-33.7ZM250.77,108.59c-1.06-.19-1.93-.51-2.68-.88,4.59.65,9.21,1.03,13.86,1.15-3.78.12-7.63.38-11.18-.27Z"/>
        <path class="cls-2" d="M266,439.33l-3.73,1.24c-1.21.11-2.54-.16-3.73,0l-4.97,1.24c-1.64.1-3.32-.02-4.97,0-4.71,1.99-16.09.8-8.46-4.54,79.32-35.32,117.04-117.12,126.48-199.19,1.2-11.83,2.22-23.97,3.63-35.5l38.6-17.93c2-2.65-36.67-17.28-38.96-18.78-4.05-2.65-2.24-3.98-3.27-6.05l-3.51-11.74c-4.09-52.36-32.75-102.15-73.29-134.7-.63-2.21,1.28-1.88,3.51-1.4,168.57,52.11,210.96,267.57,73.88,380.1-27.13,22.27-66.27,42.2-101.21,47.24Z"/>
        <path class="cls-8" d="M366.63,238.08c-.66,6.56-.52,13.51-1.41,20.33-10.09,77-53.48,150.96-126.54,182.18,1.24,2.32,7.5,1.25,9.93,1.23-1.29,2.06-4.71,1.24-6.81,1.26-38.41.47-67.7-1.99-103.34-17.2-4.76-2.03-17.09-7.6-20.71-10.35-5.58-4.24,2.54-4.38,6.69-6.59,17.78-9.46,30.38-20.96,44.32-35.23,78.7,16.18,156.12-25.47,186.4-99.28,4.82-11.75,7.79-24.24,11.48-36.35Z"/>
        <path class="cls-3" d="M131.83,305.16l3.91-1.4c23.53,10.65,47.13,14.07,70.78,10.26,4.44-2.09,8.53-2.56,12.27-1.4l4.89-1.12c4.42,2.79-11.14,19.29-16.07,19.76-21.84,4.27-39.96,2.96-61.25-3.53-20.45,24.19-47.73,41.86-78.25,50.57C26.45,340.46,5.79,292.59,1.39,236.84l-1.24-3.73c-.3-5.23-.08-10.88,0-16.15,22.37,31.66,118.67,82.43,131.68,88.2Z"/>
        <path class="cls-1" d="M293.33,11.98c-3.05,1.25.25,3.29,1.35,4.24,42.74,36.76,67.98,86.97,71.94,143.59-9.32-18.69-15.04-30.17-33.38-41.78-36.31-22.97-59.78.1-94.3-8.81-4.17-1.08-9.03-3.04-12.7-5.32,15.55,4.89,24.8,7.05,41,4.97,38.03-4.9,49.85-7.8,80.76,18,2.41,2.01,8.13,9.2,9.92,9.97,5.06,2.18-.14-16.1-.61-18.04-8.33-34.13-39.74-87.92-70.52-105.88-33.98-19.83-112.35-7.06-148.75,5.27C182.25-1.63,235.1-3.99,281.94,7.85c4.35,1.1,7.76,3.01,11.4,4.13Z"/>
        <path class="cls-4" d="M323.14,152.37c-4.19,4.46-8.78,3.28-6,11.59,1.79,5.36,11.69,3.24,14.68-.42,4.62,17.84-17.15,28.99-29.06,16.03-12.71-13.83,3.7-34,20.38-27.2Z"/>
        <path class="cls-8" d="M258.55,440.57c-.68.09-2.28,1.08-4.97,1.24l4.97-1.24Z"/>
        <path class="cls-7" d="M1.39,236.84c-.02-.2-1.09-1.05-1.24-3.73l1.24,3.73Z"/>
        <path class="cls-8" d="M266,439.33c-.61,1.67-2.38,1.12-3.73,1.24.61-1.71,2.43-1.05,3.73-1.24Z"/>
        <path class="cls-9" d="M218.79,312.61c-34.18,13.56-55.45,2.01-86.96-7.45-6.54-5.69-15.04-9.42-21.71-14.93-15.81-13.06-34.33-37.84-38.92-57.99-.36-1.6-.83-3.76,1.6-2.84,3.77,1.42,12.47,8.9,17.2,11.38,8.87,4.64,24.03,10.6,33.91,10.87,1.63.04,4.31-.49,5.43-1.75-35.82-21.32-60.44-56.26-58.43-99.44.1-2.22,1.47-14.22,3.16-14.21,19.3,30.36,47.78,50.3,82.83,58.77,27.5,6.64,55.78.37,79.18,18.96,34.62,27.49,22.15,83.01-17.29,98.66Z"/>
        <path class="cls-7" d="M116.92,248.01c-.93.97-15.84-3.64-14.9-8.05,1.31-6.09,17.95,4.87,14.9,8.05Z"/>
      </g>
    </g>
  </g>
</svg>